<?xml version="1.0" standalone="no"?>
<!DOCTYPE svg PUBLIC "-//W3C//DTD SVG 20010904//EN"
 "http://www.w3.org/TR/2001/REC-SVG-20010904/DTD/svg10.dtd">
<svg version="1.0" xmlns="http://www.w3.org/2000/svg"
 width="1000.000000pt" height="794.000000pt" viewBox="0 0 1000.000000 794.000000"
 preserveAspectRatio="xMidYMid meet">
<metadata>
Created by potrace 1.16, written by Peter Selinger 2001-2019
</metadata>
<g transform="translate(0.000000,794.000000) scale(0.100000,-0.100000)"
fill="#000000" stroke="none">
<path d="M4986 6590 c-18 -17 -58 -41 -87 -54 -59 -26 -83 -48 -94 -86 -8 -25
-37 -72 -74 -120 -36 -46 -31 -106 14 -160 19 -23 35 -52 35 -65 0 -13 -16
-44 -35 -69 -30 -40 -35 -54 -35 -100 0 -49 4 -59 40 -101 22 -25 40 -54 40
-64 0 -9 -18 -42 -40 -71 -33 -45 -40 -61 -40 -101 0 -30 6 -51 16 -60 21 -17
54 -84 54 -109 0 -12 -16 -37 -35 -57 -32 -33 -35 -41 -35 -98 0 -54 4 -67 30
-100 17 -21 33 -48 36 -61 6 -25 -14 -70 -45 -98 -32 -29 -30 -118 4 -152 14
-14 32 -39 41 -56 15 -28 15 -34 -1 -69 -10 -21 -28 -46 -41 -54 -21 -13 -24
-23 -24 -76 0 -51 4 -64 25 -85 14 -14 32 -38 41 -55 14 -28 14 -33 -2 -57 -9
-15 -27 -38 -39 -52 -25 -27 -28 -37 -26 -92 1 -24 9 -46 26 -64 34 -37 34
-81 -1 -90 -21 -5 -32 -1 -55 24 -43 46 -97 59 -152 38 -24 -9 -53 -30 -66
-46 -29 -40 -59 -38 -101 5 -38 39 -95 61 -134 51 -13 -3 -46 -24 -71 -46 -65
-56 -91 -61 -122 -21 -27 35 -90 71 -123 71 -30 0 -78 -27 -118 -66 -33 -32
-36 -33 -62 -19 -15 8 -30 21 -34 30 -7 19 -82 54 -115 55 -28 0 -80 -30 -120
-71 -16 -16 -36 -29 -44 -29 -9 0 -35 18 -59 40 -78 74 -147 75 -221 5 -46
-44 -67 -44 -110 -1 -43 42 -68 56 -104 56 -43 -1 -73 -22 -112 -81 -23 -35
-50 -60 -74 -72 -45 -21 -72 -72 -62 -118 4 -16 27 -53 52 -82 25 -28 53 -71
63 -94 20 -46 65 -75 133 -87 29 -5 44 -16 65 -46 30 -44 82 -65 129 -54 15 4
46 27 69 51 54 57 77 57 130 -4 40 -46 44 -48 94 -48 38 0 55 5 64 17 45 61
130 97 155 66 74 -92 72 -91 126 -84 43 5 56 12 93 51 57 59 79 59 131 -2 40
-47 41 -48 101 -48 60 0 61 1 101 48 33 38 47 47 73 47 33 0 62 -23 85 -67 24
-47 133 -37 167 15 25 39 45 51 82 52 32 0 54 -16 99 -73 33 -41 130 -28 161
22 41 67 77 68 136 4 41 -44 47 -47 95 -47 48 0 53 3 94 47 36 40 49 47 80 47
24 0 43 -7 53 -19 70 -83 72 -84 122 -77 37 5 56 15 92 51 66 65 82 62 149
-25 16 -21 27 -25 70 -24 46 0 55 5 100 47 40 37 57 47 85 47 30 0 39 -6 66
-44 27 -37 38 -44 77 -50 53 -7 75 3 124 55 20 22 45 39 58 39 13 0 41 -20 70
-50 44 -45 53 -50 93 -50 40 0 50 5 95 50 67 66 96 67 147 6 60 -74 121 -74
199 -1 26 25 56 45 67 45 10 0 37 -21 59 -47 40 -47 42 -48 100 -48 65 1 91
15 91 50 0 14 15 35 40 56 93 78 100 86 100 124 0 41 -18 81 -50 110 -30 27
-50 68 -50 103 0 45 -28 71 -85 80 -47 8 -115 45 -115 64 0 4 -19 17 -42 29
-60 31 -109 22 -162 -30 -49 -48 -69 -51 -105 -12 -31 33 -81 61 -111 61 -28
0 -90 -32 -115 -60 -33 -37 -52 -42 -84 -25 -17 8 -36 23 -43 33 -16 23 -70
52 -96 52 -33 0 -94 -30 -123 -61 -35 -38 -61 -37 -108 6 -52 47 -103 68 -135
55 -14 -5 -45 -30 -69 -55 -24 -25 -53 -45 -64 -45 -11 0 -40 17 -64 38 -96
84 -136 84 -221 1 -22 -21 -49 -39 -59 -39 -11 0 -50 28 -87 61 -85 79 -92 87
-92 118 0 24 9 40 62 120 29 43 23 83 -23 142 -51 68 -50 107 5 171 48 55 48
94 2 158 -56 79 -56 97 5 168 46 52 35 124 -25 173 -14 12 -20 30 -20 66 -1
43 4 55 37 93 51 59 51 101 0 167 -46 60 -50 105 -11 137 33 27 48 57 48 96 0
32 -27 90 -42 90 -5 0 -16 15 -24 34 -20 40 -12 99 14 118 64 47 68 112 12
187 -22 29 -40 63 -40 75 0 12 16 45 35 72 19 27 35 59 35 71 0 38 -21 72 -52
82 -49 17 -86 50 -93 81 -8 37 -31 50 -89 50 -36 0 -52 -6 -80 -30z"/>
<path d="M3499 3115 c-36 -32 -77 -59 -99 -65 -32 -9 -41 -17 -50 -46 -19 -57
-8 -139 22 -172 37 -40 38 -50 6 -126 -24 -56 -28 -73 -19 -93 22 -48 102 -54
149 -11 34 33 93 31 130 -5 40 -39 85 -50 149 -36 37 7 58 18 71 36 25 35 70
35 115 0 51 -38 117 -51 165 -32 20 9 46 24 57 34 35 32 60 34 93 6 17 -14 49
-32 72 -40 54 -19 121 -4 168 37 41 35 62 35 102 1 69 -58 181 -60 226 -5 28
34 83 36 118 3 36 -34 110 -53 157 -41 22 6 47 19 56 29 33 34 62 44 93 31 16
-7 31 -18 34 -25 2 -7 26 -20 53 -29 43 -14 53 -14 96 -1 27 8 62 26 79 40 16
14 34 25 39 25 16 0 64 -27 78 -43 6 -9 33 -20 59 -27 54 -12 103 2 156 46 31
27 56 25 92 -8 31 -28 111 -46 158 -36 21 4 52 19 68 33 35 29 89 33 109 8 32
-38 126 -56 172 -32 12 7 36 26 53 43 17 17 51 43 77 58 32 18 51 38 62 64 28
69 17 107 -47 163 -21 18 -52 58 -70 89 -17 31 -36 60 -42 64 -6 4 -34 8 -63
8 -48 0 -57 4 -104 46 -50 44 -55 46 -97 40 -30 -4 -52 -15 -70 -34 -15 -15
-41 -34 -58 -41 -27 -11 -37 -10 -63 4 -18 9 -37 26 -42 39 -14 29 -59 56 -95
56 -18 0 -38 -12 -63 -38 -20 -20 -53 -46 -75 -56 -37 -17 -39 -17 -72 0 -19
10 -37 27 -40 37 -6 21 -61 57 -85 57 -9 0 -36 -18 -60 -41 -85 -79 -116 -80
-181 -9 -59 65 -90 67 -151 11 -90 -82 -124 -84 -190 -12 -21 22 -49 44 -62
47 -28 7 -75 -19 -115 -61 -53 -57 -91 -52 -165 24 -21 23 -48 41 -60 41 -25
0 -84 -35 -92 -55 -7 -19 -55 -45 -83 -45 -32 0 -78 27 -85 50 -7 23 -53 50
-84 50 -11 0 -44 -23 -73 -50 -29 -28 -60 -53 -70 -56 -23 -7 -94 30 -113 60
-16 24 -55 46 -81 46 -8 0 -33 -17 -57 -38 -57 -52 -88 -72 -111 -72 -10 0
-42 25 -71 55 -71 74 -93 74 -176 0z"/>
<path d="M4186 2169 c-14 -11 -26 -26 -26 -34 0 -7 -16 -26 -35 -42 -19 -15
-49 -39 -66 -53 -22 -18 -32 -36 -36 -67 -8 -58 0 -82 45 -139 22 -27 42 -65
46 -85 9 -50 24 -59 102 -69 53 -7 71 -14 88 -33 12 -14 29 -35 38 -46 15 -17
29 -21 78 -21 60 0 62 1 102 45 50 55 77 58 109 13 36 -51 49 -57 119 -58 63
0 68 2 109 40 23 22 51 40 61 40 10 0 39 -18 64 -40 26 -21 61 -42 79 -45 47
-9 107 18 135 60 32 50 60 47 110 -11 30 -36 47 -47 78 -51 61 -8 118 12 148
52 35 45 59 44 112 -5 40 -37 48 -40 101 -40 67 0 75 4 97 47 9 19 36 42 66
59 51 27 90 78 90 115 0 23 -20 57 -72 119 -21 26 -41 64 -47 89 -13 57 -38
81 -97 92 -27 5 -73 26 -104 46 -78 52 -131 52 -189 1 -52 -48 -89 -50 -151
-8 -60 40 -114 40 -195 0 -67 -33 -81 -32 -138 13 -50 39 -124 49 -152 21 -37
-38 -80 -64 -104 -64 -14 0 -42 12 -64 27 -28 19 -55 28 -97 31 -52 4 -63 1
-103 -27 -25 -17 -54 -31 -64 -31 -10 0 -44 18 -77 40 -68 47 -117 53 -160 19z"/>
</g>
</svg>
